# xmcd
#
# Track frame offsets:
#	150
#	35580
#	82705
#	103000
#	119372
#	154270
#	202532
#	237867
#	267415
#
# Disc length: 4781 seconds
#
# Revision: 3
# Processed by: cddbd v1.5.2PL0 Copyright (c) Steve Scherf et al.
# Submitted via: EZCDAudioConverter 2.1.7.1
#
DISCID=6812ab09
DTITLE=V/A - Jazzactuel 1/3
DYEAR=2000
DGENRE=
TTITLE0=Sunny Murray - Red Cross
TTITLE1=Archie Shepp - Blasé
TTITLE2=Steve Lacy - Note
TTITLE3=Daevid Allen - Memories
TTITLE4=Sonny Sharrock - Soon
TTITLE5=Grachan Moncur III - Exploration
TTITLE6=Clifford Thornton - Pan-African Festival
TTITLE7=Jacques Coursil - Black Suite (Part 2) [Excerpt]
TTITLE8=Dave Burrell - Echo
EXTD=
EXTT0=
EXTT1=
EXTT2=
EXTT3=
EXTT4=
EXTT5=
EXTT6=
EXTT7=
EXTT8=
PLAYORDER=
